<svg xmlns="http://www.w3.org/2000/svg" xmlns:xlink="http://www.w3.org/1999/xlink" width="44px" height="45px" viewBox="0 0 44 45"><title>calendario</title><desc>Created with Sketch.</desc><g id="SYMBOLS" stroke="none" stroke-width="1" fill="none" fill-rule="evenodd"><g id="beneficios-desk-copy-9" transform="translate(-268.000000, -26.000000)" fill="#1BB99A" fill-rule="nonzero" stroke="#1BB99A" stroke-width="1.16999997"><g id="calendario" transform="translate(269.000000, 27.000000)"><path d="M23.6982254,38.0712356 L1.88649096e-12,38.0712356 L1.88649096e-12,6.23438487 C1.88649096e-12,4.25171465 1.61086498,2.64444287 3.59796765,2.64444287 L7.18112884,2.64444287 L7.18112884,0 L9.17999976,0 L9.17999976,2.64444287 L26.3258702,2.64444287 L26.3258702,0 L28.3247412,0 L28.3247412,2.64444287 L31.9375153,2.64444287 C33.9246179,2.64444287 35.535483,4.25171465 35.535483,6.23438487 L35.535483,23.9952429 C34.9004526,23.6480227 34.2207043,23.3715546 33.5069991,23.1765289 L33.5069991,22.7510728 L27.8361283,22.7510728 L27.8361283,23.3867859 C27.4907299,23.5095972 27.1546691,23.6519063 26.8292896,23.8123783 L26.8292896,22.7510728 L21.4545478,22.7510728 L21.4545478,29.1184184 L22.1190716,29.1184184 C22.0046721,29.4454031 21.908041,29.7806476 21.8303267,30.1230113 L21.4545478,30.1230113 L21.4545478,36.0959116 L22.4602145,36.0969047 C22.7902193,36.8077067 23.2074321,37.4703297 23.6982254,38.0712356 Z M33.5069991,6.23438487 C33.5069991,5.3589354 32.8000778,4.6469611 31.9227088,4.63885509 L28.3247412,4.63885509 L28.3247412,7.38671193 L26.3258702,7.38671193 L26.3258702,4.63885509 L9.17999976,4.63885509 L9.17999976,7.38671193 L7.18112884,7.38671193 L7.18112884,4.63885509 L3.59796765,4.63885509 C2.71816072,4.64687243 2.00690618,5.35654044 1.99887091,6.23438487 L1.99887091,13.2960815 L33.5069991,13.2960815 L33.5069991,6.23438487 Z M15.0729673,29.1184184 L20.4477091,29.1184184 L20.4477091,22.7510728 L15.0729673,22.7510728 L15.0729673,29.1184184 Z M15.0729673,30.1230113 L15.0729673,36.0896104 L20.4477091,36.0949175 L20.4477091,30.1230113 L15.0729673,30.1230113 Z M8.69138686,29.1184184 L14.0661287,29.1184184 L14.0661287,22.7510728 L8.69138686,22.7510728 L8.69138686,29.1184184 Z M8.69138686,30.1230113 L8.69138686,36.0833093 L14.0661287,36.0886163 L14.0661287,30.1230113 L8.69138686,30.1230113 Z M1.99887091,29.1184184 L7.68454819,29.1184184 L7.68454819,22.7510728 L1.99887091,22.7510728 L1.99887091,29.1184184 Z M1.99887091,30.1230113 L1.99887091,36.0767011 L7.68454819,36.0823151 L7.68454819,30.1230113 L1.99887091,30.1230113 Z M26.8292896,21.7464799 L26.8292896,15.3200405 L21.4545478,15.3200405 L21.4545478,21.7464799 L26.8292896,21.7464799 Z M15.0729673,21.7464799 L20.4477091,21.7464799 L20.4477091,15.3200405 L15.0729673,15.3200405 L15.0729673,21.7464799 Z M33.5069991,21.7464799 L33.5069991,15.3200405 L27.8361283,15.3200405 L27.8361283,21.7464799 L33.5069991,21.7464799 Z M8.69138686,21.7464799 L14.0661287,21.7464799 L14.0661287,15.3200405 L8.69138686,15.3200405 L8.69138686,21.7464799 Z M1.99887091,21.7464799 L7.68454819,21.7464799 L7.68454819,15.3200405 L1.99887091,15.3200405 L1.99887091,21.7464799 Z" id="Combined-Shape"></path><path d="M31.1663068,43.2661487 C25.3959607,43.2741686 20.7108412,38.6350259 20.6999621,32.9025385 C20.6891953,27.170051 25.3567645,22.5134814 31.1271003,22.4999414 C36.8974362,22.4865759 41.5869538,27.1213308 41.6032459,32.8538055 C41.6113588,38.5905942 36.9409609,43.2499858 31.1663068,43.2661487 L31.1663068,43.2661487 Z M31.1663068,24.4888583 C27.7460775,24.4888583 24.663191,26.5372381 23.3570933,29.6775261 C22.0509955,32.8178141 22.7793222,36.4305905 25.2020066,38.8289957 C27.624691,41.227401 31.2638441,41.9383353 34.4202908,40.6298528 C37.5767376,39.3213704 39.6278499,36.2515771 39.6160864,32.8538055 C39.5916694,28.2325841 35.8181006,24.4968325 31.1663068,24.4888583 Z" id="Shape"></path><path d="M30.1064508,26.5499993 L30.1064508,32.8830637 C30.1064508,33.3801199 30.5093946,33.7830637 31.0064508,33.7830637 C31.503507,33.7830637 31.9064508,33.3801199 31.9064508,32.8830637 L31.9064508,26.5499993 C31.9064508,26.0529431 31.503507,25.6499993 31.0064508,25.6499993 C30.5093946,25.6499993 30.1064508,26.0529431 30.1064508,26.5499993 Z" id="Line-2"></path><path d="M34.4101926,31.9831747 L31.0064508,31.9831747 C30.5093946,31.9831747 30.1064508,32.3861184 30.1064508,32.8831747 C30.1064508,33.3802309 30.5093946,33.7831746 31.0064508,33.7831746 L34.4101926,33.7831746 C34.9072489,33.7831746 35.3101926,33.3802309 35.3101926,32.8831747 C35.3101926,32.3861184 34.9072489,31.9831747 34.4101926,31.9831747 Z" id="Line-3"></path></g></g></g></svg>