<svg xmlns="http://www.w3.org/2000/svg" xmlns:xlink="http://www.w3.org/1999/xlink" width="49px" height="49px" viewBox="0 0 49 49"><title>icon_conta</title><g id="icon_conta" stroke="none" stroke-width="1" fill="none" fill-rule="evenodd"><rect id="Rectangle" x="0" y="0" width="49" height="49"></rect><g id="Group-686" transform="translate(8.000000, 7.000000)" stroke="#1BB99A" stroke-linecap="round" stroke-linejoin="round"><path d="M11.1000001,34.7800004 L3.70000005,34.7800004 C2.06608003,34.7800004 0.74000001,33.4539204 0.74000001,31.8200004 L0.74000001,3.70000005 C0.74000001,2.06608003 2.06608003,0.74000001 3.70000005,0.74000001 L18.5000002,0.74000001 C20.1339203,0.74000001 21.4600003,2.06608003 21.4600003,3.70000005 L21.4600003,17.0200002" id="Stroke-8244" stroke-width="2.5"></path><line x1="21.4600003" y1="6.66000009" x2="0.74000001" y2="6.66000009" id="Stroke-8245" stroke-width="2.5"></line><line x1="11.1000001" y1="28.8600004" x2="0.74000001" y2="28.8600004" id="Stroke-8246" stroke-width="2.5"></line><line x1="8.1400001" y1="3.70000005" x2="14.0600002" y2="3.70000005" id="Stroke-8247" stroke-width="1.5"></line><path d="M11.1000001,32.5600004 C10.6915201,32.5600004 10.3600001,32.2284804 10.3600001,31.8200004 C10.3600001,31.4115204 10.6915201,31.0800004 11.1000001,31.0800004" id="Stroke-8248" stroke-width="0.5"></path><line x1="14.0600002" y1="24.4200003" x2="34.7800004" y2="24.4200003" id="Stroke-8249" stroke-width="2.5"></line><line x1="22.9400003" y1="27.3800004" x2="17.0200002" y2="27.3800004" id="Stroke-8250" stroke-width="1.5"></line><line x1="31.8200004" y1="27.3800004" x2="28.8600004" y2="27.3800004" id="Stroke-8251" stroke-width="1.5"></line><line x1="19.9800003" y1="30.3400004" x2="17.0200002" y2="30.3400004" id="Stroke-8252" stroke-width="1.5"></line><path d="M34.7800004,31.8200004 C34.7800004,33.4539204 33.4539204,34.7800004 31.8200004,34.7800004 L17.0200002,34.7800004 C15.3860802,34.7800004 14.0600002,33.4539204 14.0600002,31.8200004 L14.0600002,22.9400003 C14.0600002,21.3060803 15.3860802,19.9800003 17.0200002,19.9800003 L31.8200004,19.9800003 C33.4539204,19.9800003 34.7800004,21.3060803 34.7800004,22.9400003 L34.7800004,31.8200004 L34.7800004,31.8200004 Z" id="Stroke-8253" stroke-width="2.5"></path><path d="M9.04191212,18.6503682 C9.04191212,19.7870083 9.96395213,20.7090483 11.1005921,20.7090483 C12.2357522,20.7090483 13.1577922,19.7870083 13.1577922,18.6503682 C13.1577922,17.5137282 12.2357522,16.5887282 11.1005921,16.5887282 C9.96395213,16.5887282 9.04191212,15.6696482 9.04191212,14.5315282 C9.04191212,13.3948882 9.96395213,12.4728482 11.1005921,12.4728482 C12.2357522,12.4728482 13.1577922,13.3948882 13.1577922,14.5315282" id="Stroke-8254" stroke-width="1.5"></path><line x1="11.1000001" y1="20.7084563" x2="11.1000001" y2="22.0789363" id="Stroke-8255" stroke-width="1.5"></line><line x1="11.1000001" y1="11.1000001" x2="11.1000001" y2="12.4734402" id="Stroke-8256" stroke-width="1.5"></line></g></g></svg>