<svg xmlns="http://www.w3.org/2000/svg" xmlns:xlink="http://www.w3.org/1999/xlink" width="36px" height="36px" viewBox="0 0 36 36"><title>icon_2</title><desc>Created with Sketch.</desc><g id="icon_2" stroke="none" stroke-width="1" fill="none" fill-rule="evenodd"><g id="Group-15" transform="translate(5.000000, 10.000000)" fill="#FFFFFF" stroke="#FFFFFF" stroke-width="0.3"><path d="M6.38312564,8.55156233 C6.58360163,8.55156233 6.74538314,8.38978082 6.74538314,8.18930483 L6.74538314,7.05209143 C6.74538314,6.85195567 6.58337336,6.68983393 6.38312564,6.68983393 L4.10869884,6.68983393 C3.90845112,6.68983393 3.74644134,6.85195567 3.74644134,7.05209143 L3.74644134,8.18930483 C3.74644134,8.38978082 3.90822285,8.55156233 4.10869884,8.55156233 L6.38312564,8.55156233 Z M6.38312564,8.96426074 L4.10869884,8.96426074 C3.68029581,8.96426074 3.33374293,8.61770786 3.33374293,8.18930483 L3.33374293,7.05209143 C3.33374293,6.62409243 3.68046023,6.27713552 4.10869884,6.27713552 L6.38312564,6.27713552 C6.81136425,6.27713552 7.15808155,6.62409243 7.15808155,7.05209143 L7.15808155,8.18930483 C7.15808155,8.61770786 6.81152867,8.96426074 6.38312564,8.96426074 Z" id="Stroke-1" fill-rule="nonzero"></path><path d="M22.0198099,13.2451282 L22.2261592,13.2451282 C22.2261592,14.1721993 21.4747583,14.9236001 20.5476872,14.9236001 C19.6206999,14.9236001 18.8697838,14.1722832 18.8697838,13.2451282 C18.8697838,12.3179732 19.6206999,11.5666562 20.5476872,11.5666562 C21.4747583,11.5666562 22.2261592,12.3180571 22.2261592,13.2451282 L22.0198099,13.2451282 Z M22.0198099,13.2451282 L21.8134607,13.2451282 C21.8134607,12.5459841 21.2468313,11.9793546 20.5476872,11.9793546 C19.8486763,11.9793546 19.2824823,12.5458509 19.2824823,13.2451282 C19.2824823,13.9444054 19.8486763,14.5109017 20.5476872,14.5109017 C21.2468313,14.5109017 21.8134607,13.9442722 21.8134607,13.2451282 L22.0198099,13.2451282 Z" id="Stroke-3" fill-rule="nonzero"></path><path d="M23.9871891,13.2451282 L24.1935383,13.2451282 C24.1935383,14.1721993 23.4421375,14.9236001 22.5150664,14.9236001 C21.5879953,14.9236001 20.8365944,14.1721993 20.8365944,13.2451282 C20.8365944,12.3180571 21.5879953,11.5666562 22.5150664,11.5666562 C23.4421375,11.5666562 24.1935383,12.3180571 24.1935383,13.2451282 L23.9871891,13.2451282 Z M23.9871891,13.2451282 L23.7808399,13.2451282 C23.7808399,12.5459841 23.2142104,11.9793546 22.5150664,11.9793546 C21.8159223,11.9793546 21.2492928,12.5459841 21.2492928,13.2451282 C21.2492928,13.9442722 21.8159223,14.5109017 22.5150664,14.5109017 C23.2142104,14.5109017 23.7808399,13.9442722 23.7808399,13.2451282 L23.9871891,13.2451282 Z" id="Stroke-5" fill-rule="nonzero"></path><path d="M25.2512844,15.1314241 L25.253559,1.65464155 C25.2531795,1.30248187 24.9400291,1.00970977 24.5423873,1.00970977 L1.71938576,1.00629756 C1.32211714,1.0058975 1.00857256,1.29892531 1.00857255,1.65038 L1.00629813,15.1274438 C1.00629813,15.4784807 1.319684,15.7712395 1.71747733,15.7720421 L24.5395345,15.7760229 C24.9375511,15.7752197 25.2512844,15.482249 25.2512844,15.1314241 Z M24.5401052,16.3950699 L1.71679931,16.391089 C0.986347566,16.3896164 0.387250516,15.8299518 0.387250516,15.1273916 L0.389524938,1.65032776 C0.389524938,0.947223916 0.989493506,0.386514261 1.71974405,0.387249791 L24.5424336,0.390662152 C25.2728381,0.390662152 25.8718484,0.950691841 25.8726064,1.65436024 L25.870332,15.1314502 C25.870332,15.8337771 25.2708391,16.3935959 24.5401052,16.3950699 Z" id="Stroke-7" fill-rule="nonzero"></path><polygon id="Fill-9" points="3.38651146 10.4345053 7.36675838 10.4345053 7.36675838 9.94891513 3.38651146 9.94891513"></polygon><polygon id="Fill-11" points="8.50397178 10.4345053 12.4842187 10.4345053 12.4842187 9.94891513 8.50397178 9.94891513"></polygon><polygon id="Fill-12" points="13.6214321 10.4345053 17.601679 10.4345053 17.601679 9.94891513 13.6214321 9.94891513"></polygon><polygon id="Fill-13" points="18.7388924 10.4345053 22.7191393 10.4345053 22.7191393 9.94891513 18.7388924 9.94891513"></polygon><path d="M2.48060727,6.98266455 C1.95976353,6.87008042 1.45995824,6.71371358 0.979485573,6.51981869 L0.979485573,7.45176508 C1.53842596,7.64281693 2.12352226,7.78212557 2.7290884,7.86741658 L2.7290884,7.01336931 C2.64720903,7.00654603 2.56248663,6.9957425 2.48060727,6.98266455 M7.46273919,5.63506667 C6.85034977,5.47187654 6.33632931,5.12445785 5.96900938,4.55300811 C7.17673002,4.30395838 8.30655153,3.79391817 9.31071097,3.05927831 C8.96044924,4.05888889 8.34464818,4.9169164 7.46273919,5.63506667 M4.77720974,0.466431746 C4.70442808,0.681933686 4.64358716,0.904827513 4.59411838,1.13625044 C4.59411838,1.17662152 4.57364854,1.25906949 4.55317869,1.29944056 C4.34904889,2.50374956 4.49176917,3.52837884 5.04331767,4.40687619 C5.04331767,4.43018907 5.04331767,4.43018907 5.06378751,4.43018907 L4.32516741,4.43018907 C3.87596811,4.40687619 3.46713989,4.34489806 3.01452896,4.2635873 C2.30035894,4.11745538 1.61973672,3.87864056 0.98346582,3.5590836 L0.98346582,4.1276903 C1.41219527,4.2971351 1.86139457,4.44042399 2.33788698,4.55300811 C3.28006829,4.73325644 4.24669968,4.77703915 5.22697764,4.65478871 L5.3935794,4.87597672 C5.69266653,5.21657213 6.04406547,5.5020127 6.43128663,5.68624127 L6.55410568,5.68624127 C6.93507217,5.68624127 7.27566758,5.84601975 7.49003231,6.09450088 C7.55144183,6.06038448 7.60943972,6.02342504 7.67028063,5.98191675 L8.18032085,5.96144691 C8.55162102,5.94097707 8.87856988,5.85909771 9.20495012,5.73741587 C9.24588981,5.71637743 9.26635965,5.69590758 9.29024113,5.69590758 C9.31071097,5.69590758 9.31071097,5.69590758 9.31071097,5.67543774 C9.41249157,5.65553651 9.47390109,5.61459683 9.55521185,5.57308854 C9.47390109,5.63506667 9.41249157,5.67543774 9.35165065,5.73741587 C9.33118081,5.73741587 9.33118081,5.73741587 9.31071097,5.75731711 C8.80351379,6.08426596 8.27300374,6.35321693 7.7180436,6.56758166 C7.72827852,6.61534462 7.73112155,6.66595062 7.73112155,6.71712522 L7.73112155,7.32951464 C8.69490991,6.95878307 9.58250497,6.43111605 10.3961812,5.73741587 C10.600311,5.5531873 10.808421,5.36952734 11.0085706,5.18586737 C12.3180718,3.864994 13.1738249,2.32463845 13.568438,0.572192593 M13.1698447,0.518174956 C13.1072979,0.73993157 13.0367907,0.959982363 12.9588916,1.17662152 C12.998694,0.952590476 13.0231441,0.731402469 13.0311046,0.513057496 M12.7058616,0.490881834 C12.7087046,0.621092769 12.7041558,0.754715344 12.6933522,0.891180952 C12.6524126,1.60591958 12.4039314,2.34055944 11.975202,3.09964938 L11.9342623,3.20199859 C11.5430609,3.79391817 11.093293,4.32442822 10.5190002,4.83560564 C9.73944042,5.4514067 8.91894095,5.73741587 8.07910885,5.69590758 C9.33118081,4.73325644 10.1272302,3.48800776 10.4985304,1.9726709 C10.9062214,1.52631464 11.2559145,1.04072451 11.5476097,0.518174956 M11.3793022,0.544330864 C11.1552711,0.973060317 10.8692619,1.36028148 10.5389014,1.74863986 L10.6412507,1.19709136 L10.6412507,1.09531076 L10.6617205,0.663169665 M9.62799351,0.608014815 C9.65585524,0.96737425 9.6524436,1.33298836 9.61718998,1.70826878 C9.5762503,2.05511887 9.51484078,2.4053806 9.41249157,2.79317037 C9.38861009,2.79317037 9.38861009,2.81022857 9.37155189,2.83411005 L9.35165065,2.8716381 C8.28267005,3.65119788 7.13635894,4.14076825 5.82230885,4.32442822 L5.61874765,3.83485785 C5.27076035,2.77326914 5.37310956,1.64629065 5.98947922,0.438570018" id="Fill-14"></path></g></g></svg>