<svg xmlns="http://www.w3.org/2000/svg" xmlns:xlink="http://www.w3.org/1999/xlink" width="50px" height="41px" viewBox="0 0 50 41"><title>Group 1136</title><desc>Created with Sketch.</desc><g id="Symbols" stroke="none" stroke-width="1" fill="none" fill-rule="evenodd" stroke-linejoin="round"><g id="cards-beneficios_large" transform="translate(-1074.000000, -19.000000)" stroke="#1BB99A" stroke-width="3.05769231"><g id="Group" transform="translate(1020.000000, 0.000000)"><g id="Group-1136" transform="translate(56.261538, 21.000000)"><g id="Group-1135" transform="translate(26.657517, 18.127112)"><path d="M19.1934126,9.59670629 C19.1934126,14.8954591 14.8954591,19.1934126 9.59670629,19.1934126 C4.29521155,19.1934126 0,14.8954591 0,9.59670629 C0,4.2965825 4.29521155,0 9.59670629,0 C14.8954591,0 19.1934126,4.2965825 19.1934126,9.59670629 L19.1934126,9.59670629 Z" id="Stroke-4483"></path><polyline id="Stroke-4484" stroke-linecap="round" points="12.7956084 10.663007 8.53040559 10.663007 8.53040559 4.2652028"></polyline></g><path d="M23.4586154,25.5912168 L4.2652028,25.5912168 C1.91081085,25.5912168 0,23.6804059 0,21.326014 L0,4.2652028 C0,1.91081085 1.91081085,0 4.2652028,0 L31.989021,0 C34.3434129,0 36.2542238,1.91081085 36.2542238,4.2652028 L36.2542238,12.7956084" id="Stroke-4692" stroke-linecap="round"></path><line x1="0" y1="6.3978042" x2="36.2542238" y2="6.3978042" id="Stroke-4693" stroke-linecap="round"></line><line x1="15.5553147" y1="12.2307692" x2="4.89230769" y2="12.2307692" id="Stroke-4694" stroke-linecap="round"></line><line x1="30.4835245" y1="12.2307692" x2="26.2183217" y2="12.2307692" id="Stroke-4695" stroke-linecap="round"></line><line x1="11.2901119" y1="16.495972" x2="4.89230769" y2="16.495972" id="Stroke-4696" stroke-linecap="round"></line></g></g></g></g></svg>