<svg xmlns="http://www.w3.org/2000/svg" xmlns:xlink="http://www.w3.org/1999/xlink" width="30px" height="41px" viewBox="0 0 30 41"><title>ico-phone 2</title><desc>Created with Sketch.</desc><defs><path d="M23.9175011,36.7647059 L5.51942334,36.7647059 C4.50568925,36.7647059 3.67961556,35.9393382 3.67961556,34.9264706 L3.67961556,33.0882353 L25.7573089,33.0882353 L25.7573089,34.9264706 C25.7573089,35.9393382 24.9312352,36.7647059 23.9175011,36.7647059 M5.51942334,3.67647059 L23.9175011,3.67647059 C24.9312352,3.67647059 25.7573089,4.50183824 25.7573089,5.51470588 L25.7573089,29.4117647 L3.67961556,29.4117647 L3.67961556,5.51470588 C3.67961556,4.50183824 4.50568925,3.67647059 5.51942334,3.67647059 M23.9175011,1.49213975e-13 L5.51942334,1.49213975e-13 C2.47638127,1.49213975e-13 6.03961325e-13,2.47426471 6.03961325e-13,5.51470588 L6.03961325e-13,34.9264706 C6.03961325e-13,37.9669118 2.47638127,40.4411765 5.51942334,40.4411765 L23.9175011,40.4411765 C26.9605432,40.4411765 29.4369245,37.9669118 29.4369245,34.9264706 L29.4369245,5.51470588 C29.4369245,2.47426471 26.9605432,1.49213975e-13 23.9175011,1.49213975e-13 M12.8786545,9.19117647 L16.55827,9.19117647 C17.5701643,9.19117647 18.3980778,8.36397059 18.3980778,7.35294118 C18.3980778,6.34191176 17.5701643,5.51470588 16.55827,5.51470588 L12.8786545,5.51470588 C11.8667602,5.51470588 11.0388467,6.34191176 11.0388467,7.35294118 C11.0388467,8.36397059 11.8667602,9.19117647 12.8786545,9.19117647" id="path-1"></path></defs><g id="-" stroke="none" stroke-width="1" fill="none" fill-rule="evenodd"><g id="beneficios-desk-copy-9" transform="translate(-275.000000, -19.000000)"><g id="ico-phone-2" transform="translate(275.000000, 19.000000)"><mask id="mask-2" fill="white"><use xlink:href="#path-1"></use></mask><use id="ico-phone" fill="#1BB99A" xlink:href="#path-1"></use></g></g></g></svg>