<svg xmlns="http://www.w3.org/2000/svg" xmlns:xlink="http://www.w3.org/1999/xlink" width="49px" height="49px" viewBox="0 0 49 49"><title>icon_chip</title><g id="icon_chip" stroke="none" stroke-width="1" fill="none" fill-rule="evenodd"><path d="M40.4375,44.1875 C40.4375,45.2225 39.599375,46.0625 38.5625,46.0625 L10.4375,46.0625 C9.400625,46.0625 8.5625,45.2225 8.5625,44.1875 L8.5625,4.8125 C8.5625,3.7775 9.400625,2.9375 10.4375,2.9375 L30.175625,2.9375 C30.73625,2.9375 31.266875,3.18875 31.625,3.621875 L40.01,13.825625 C40.2875,14.159375 40.4375,14.58125 40.4375,15.014375 L40.4375,44.1875 L40.4375,44.1875 Z M34.8125,36.6875 C34.8125,38.7575 33.1325,40.4375 31.0625,40.4375 L17.9375,40.4375 C15.8675,40.4375 14.1875,38.7575 14.1875,36.6875 L14.1875,27.3125 C14.1875,25.2425 15.8675,23.5625 17.9375,23.5625 L31.0625,23.5625 C33.1325,23.5625 34.8125,25.2425 34.8125,27.3125 L34.8125,36.6875 L34.8125,36.6875 Z M19.8125,40.4375 L19.8125,23.5625 M29.1875,40.4375 L29.1875,23.5625 M29.1875,29.1875 L34.8125,29.1875 M14.1875,29.1875 L19.8125,29.1875 M29.1875,34.8125 L34.8125,34.8125 M14.1875,34.8125 L19.8125,34.8125 M14.1875,2.9375 L14.1875,10.4375 M19.8125,2.9375 L19.8125,10.4375 M25.4375,2.9375 L25.4375,10.4375" stroke="#00BD98" stroke-width="2.5" stroke-linejoin="round" transform="translate(24.500000, 24.500000) rotate(-270.000000) translate(-24.500000, -24.500000) "></path><rect id="Rectangle" x="0" y="0" width="49" height="49"></rect></g></svg>