<svg xmlns="http://www.w3.org/2000/svg" xmlns:xlink="http://www.w3.org/1999/xlink" width="32px" height="32px" viewBox="0 0 32 32"><title>08/ icone/rende_mais</title><desc>Created with Sketch.</desc><g id="08/-icone/rende_mais" stroke="none" stroke-width="1" fill="none" fill-rule="evenodd"><g id="Group" transform="translate(6.000000, 2.000000)"><g id="Group-1123" transform="translate(0.000000, 5.000000)" stroke="#FFFFFF" stroke-linecap="round" stroke-linejoin="round" stroke-width="1.07119993"><path d="M19.7920895,9.89604473 C19.7920895,15.3613004 15.3626198,19.7920895 9.89604473,19.7920895 C4.43078909,19.7920895 0,15.3613004 0,9.89604473 C0,4.43078909 4.43078909,0 9.89604473,0 C15.3626198,0 19.7920895,4.43078909 19.7920895,9.89604473 L19.7920895,9.89604473 Z" id="Stroke-1155"></path><path d="M9.90608843,13.5211081 L9.90608843,14.8405808 M7.92687949,11.5418992 C7.92687949,12.6344225 8.8135651,13.5211081 9.90608843,13.5211081 C10.9986118,13.5211081 11.8852974,12.6344225 11.8852974,11.5418992 C11.8852974,10.4480564 10.9986118,9.56269024 9.90608843,9.56269024 C8.8135651,9.56269024 7.92687949,8.67600464 7.92687949,7.5834813 C7.92687949,6.48963849 8.8135651,5.60427235 9.90608843,5.60427235 C10.9986118,5.60427235 11.8852974,6.48963849 11.8852974,7.5834813 M9.90608843,4.28479972 L9.90608843,5.60427235" id="Combined-Shape"></path></g><path d="M20.5774648,3.96649485 L20.5774648,5.95554124 C20.5774648,6.24162514 20.5248832,6.44555351 20.4197183,6.56733247 C20.3145535,6.68911143 20.1755877,6.75 20.0028169,6.75 C19.8300461,6.75 19.6901414,6.68911143 19.5830986,6.56733247 C19.4760558,6.44555351 19.4225352,6.24162514 19.4225352,5.95554124 L19.4225352,3.96649485 L17.771831,3.96649485 C17.4938953,3.96649485 17.2957752,3.91140519 17.1774648,3.80122423 C17.0591543,3.69104326 17,3.54703697 17,3.36920103 C17,3.19136509 17.0591543,3.0473588 17.1774648,2.93717784 C17.2957752,2.82699687 17.4938953,2.77384019 17.771831,2.77770619 L19.4225352,2.77770619 L19.4225352,0.794458763 C19.4225352,0.512240857 19.4760558,0.309278969 19.5830986,0.18556701 C19.6901414,0.0618550515 19.8300461,0 20.0028169,0 C20.1755877,0 20.3154924,0.0608885664 20.4225352,0.182667526 C20.529578,0.304446485 20.5830986,0.508374858 20.5830986,0.794458763 L20.5774648,2.77770619 L22.228169,2.77770619 C22.5061047,2.77770619 22.7042248,2.83182936 22.8225352,2.94007732 C22.9408457,3.04832528 23,3.19136509 23,3.36920103 C23,3.54703697 22.9408457,3.69104326 22.8225352,3.80122423 C22.7042248,3.91140519 22.5061047,3.96649485 22.228169,3.96649485 L20.5774648,3.96649485 Z" id="+" fill="#FFFFFF" fill-rule="nonzero"></path></g></g></svg>