<svg xmlns="http://www.w3.org/2000/svg" xmlns:xlink="http://www.w3.org/1999/xlink" width="36px" height="36px" viewBox="0 0 36 36"><title>icon_1</title><desc>Created with Sketch.</desc><g id="icon_1" stroke="none" stroke-width="1" fill="none" fill-rule="evenodd"><path d="M28.764434,15.7126102 L28.8262134,15.7887238 L32.1926301,20.8621682 C32.3453074,21.0922644 32.2825469,21.4025636 32.0524507,21.5552409 C31.8479208,21.690954 31.5800205,21.6564448 31.4157821,21.4854967 L31.359378,21.4150615 L29.0272586,17.8984912 C29.0130479,22.7818876 25.4773714,27.3244784 20.6159825,28.4879026 C16.9653592,29.3616726 13.1876091,28.2524696 10.5633826,25.6375991 C10.3677721,25.4426859 10.3672067,25.1261039 10.5621199,24.9304934 C10.757033,24.7348829 11.073615,24.7343175 11.2692255,24.9292307 C13.6505674,27.3020825 17.0743229,28.3073474 20.3832223,27.5153684 C24.981562,26.414897 28.2836329,21.9638372 28.0113744,17.3324755 L24.9211986,21.0744431 C24.7648977,21.2637064 24.498522,21.3084879 24.2917157,21.1926057 L24.2172869,21.1415872 C24.0280237,20.9852863 23.9832422,20.7189106 24.0991243,20.5121042 L24.1501428,20.4376755 L27.9393323,15.8477323 C27.9667514,15.8034045 28.0010236,15.7633984 28.0409913,15.729404 L28.0240595,15.7467866 C28.2163894,15.5138961 28.5619733,15.5076689 28.764434,15.7126102 Z M17.8958874,10.5056704 C18.1168013,10.5056704 18.3005349,10.6648581 18.3386373,10.8747824 L18.3458874,10.9556704 L18.3457715,12.2395724 C19.7880009,12.4566436 20.894954,13.702805 20.894954,15.2062538 C20.894954,15.4547819 20.6934822,15.6562537 20.4449541,15.6562537 C20.1964259,15.6562537 19.9949541,15.4547819 19.9949541,15.2062538 C19.9949541,14.0493676 19.0583053,13.1099062 17.903666,13.1060987 L17.8958874,13.1070037 L17.888,13.106 L17.7466853,13.1113625 C16.6571276,13.1883002 15.796454,14.0971937 15.796454,15.2062538 C15.796454,16.3159837 16.6560899,17.2225882 17.74655,17.2993256 L17.8966207,17.3045871 C19.551152,17.3045871 20.894954,18.651727 20.894954,20.3084204 C20.894954,21.8118692 19.7880009,23.0580306 18.3457715,23.2751018 L18.3458874,24.5555204 C18.3458874,24.8040486 18.1444155,25.0055204 17.8958874,25.0055204 C17.6749735,25.0055204 17.4912399,24.8463328 17.4531375,24.6364085 L17.4458874,24.5555204 L17.4450801,23.2748075 C16.0026574,23.0569331 14.8964541,21.8114761 14.8964541,20.3084204 C14.8964541,20.0598923 15.0979259,19.8584204 15.3464541,19.8584204 C15.5949822,19.8584204 15.796454,20.0598923 15.796454,20.3084204 C15.796454,21.4652037 16.7327913,22.4042233 17.8885584,22.4085719 L17.8958874,22.4078538 L17.903,22.408 L18.0463551,22.4033104 C19.1344942,22.3263546 19.9949541,21.417257 19.9949541,20.3084204 C19.9949541,19.1987249 19.133673,18.2870568 18.046248,18.2098791 L17.8966207,18.2045871 C16.2392585,18.2045871 14.8964541,16.8637828 14.8964541,15.2062538 C14.8964541,13.7031981 16.0026574,12.4577411 17.4450801,12.2398667 L17.4458874,10.9556704 C17.4458874,10.7071423 17.6473593,10.5056704 17.8958874,10.5056704 Z M26.2081217,10.6796724 C26.3900494,10.8874148 26.3691224,11.2033049 26.1613799,11.3852326 C25.9536374,11.5671602 25.6377474,11.5462332 25.4558197,11.3384907 C23.0851189,8.63139702 19.4286561,7.41992787 15.8889131,8.26625252 C10.774861,9.48951966 7.31195223,14.6251204 8.14910043,19.824529 L11.3535536,15.9457603 C11.5097965,15.7564492 11.7761586,15.7115861 11.9830004,15.8274048 L12.0574447,15.8784006 C12.2467559,16.0346435 12.291619,16.3010055 12.1758002,16.5078473 L12.1248045,16.5822916 L8.25330449,21.2731805 C8.06102901,21.5061504 7.71541024,21.5124606 7.5128965,21.3075396 L7.45109875,21.2314304 L4.08347375,16.157986 C3.93075843,15.927915 3.99346756,15.6176054 4.22353852,15.4648901 C4.42804603,15.3291432 4.69595196,15.3636081 4.86021868,15.5345291 L4.91663437,15.6049549 L7.03721066,18.8004766 C6.77352755,13.508552 10.4246824,8.54507166 15.6563267,7.29367677 C19.5615829,6.3599608 23.5956961,7.69655414 26.2081217,10.6796724 Z" id="Combined-Shape" fill="#FFFFFF" fill-rule="nonzero"></path></g></svg>