<svg xmlns="http://www.w3.org/2000/svg" xmlns:xlink="http://www.w3.org/1999/xlink" width="396" height="71"><defs><path id="a" d="M0 0h29.876v29.876H0z"></path><path id="c" d="M0 0h88.036v69.51H0z"></path><path id="e" d="M0 0h36.516v50.781H0z"></path></defs><g fill="none" fill-rule="evenodd"><path d="M0 69.595 3.56 50.33c.611-3.62 1.1-6.748 1.471-9.264h7.237l-.552 4.6h.124a11.532 11.532 0 0 1 9.815-5.273c4.54 0 6.564 2.881 6.748 5.397 2.577-3.68 6.136-5.397 9.817-5.397 3.68 0 6.992 2.821 6.992 7.668a30.758 30.758 0 0 1-.552 4.908l-3.068 16.625h-8.097l2.881-15.584c.256-1.149.4-2.318.432-3.496 0-1.961-.86-3.375-2.884-3.375s-5.521 3.806-6.688 9.51l-2.392 12.945h-8.096L19.69 53.89c.245-1.068.393-2.156.429-3.252 0-1.904-.612-3.5-2.7-3.5-2.084 0-5.825 4.052-6.869 9.635L8.22 69.655M64.045 69.595l3.62-19.264c.676-3.62 1.165-6.748 1.533-9.264h7.487l-.616 4.724h.124c2.7-3.743 6.256-5.397 10.06-5.397 3.804 0 7.3 2.881 7.3 7.79a35.73 35.73 0 0 1-.489 4.847l-3.128 16.564h-8.407l3.008-15.828c.19-1.052.291-2.122.307-3.189 0-1.963-.676-3.375-2.823-3.375-2.148 0-5.952 3.436-7.116 9.752l-2.393 12.7M111.1 64.503l9.261-10a83.794 83.794 0 0 1 6.996-6.564v-.184h-12.148l1.288-6.749h22.332l-.92 5.337-9.14 9.695a66.519 66.519 0 0 1-6.936 6.625v.123h13.376l-1.35 6.809h-23.742M154.227 69.595l3.62-19.264c.672-3.62 1.164-6.748 1.532-9.264h7.485l-.613 4.724h.123c2.698-3.743 6.257-5.397 10.06-5.397 3.805 0 7.3 2.881 7.3 7.79a35.66 35.66 0 0 1-.49 4.847l-3.13 16.564h-8.466l3.007-15.828c.19-1.052.292-2.122.307-3.189 0-1.963-.675-3.375-2.822-3.375-2.146 0-5.95 3.436-7.116 9.752l-2.393 12.7M187.108 69.595l7.853-41.472h8.406l-3.13 16.564h.123c2.332-2.64 5.337-4.293 9.14-4.293 3.804 0 7.18 2.821 7.18 7.729a34.622 34.622 0 0 1-.552 5.152l-3.068 16.38h-8.528l2.944-15.644c.266-1.167.41-2.36.429-3.556 0-1.84-.797-3.192-2.944-3.192-2.146 0-5.889 3.56-6.993 9.327l-2.455 13.065" fill="#231F20"></path><g transform="translate(220.728 40.394)"><mask id="b" fill="#fff"><use xlink:href="#a"></use></mask><path d="M20.428 6.564c-.749-.148-1.509-.23-2.271-.245-5.457 0-9.385 6.685-9.385 11.964 0 2.82 1.104 4.721 3.436 4.721s5.584-2.884 6.869-9.876l1.351-6.564zM17.973 29.2c.063-1.717.247-3.62.431-5.644h-.184c-2.64 4.724-6.259 6.32-9.571 6.32-5.152 0-8.649-3.988-8.649-9.94C0 10.305 6.38 0 20.428 0c3.2.023 6.38.5 9.448 1.412l-3.068 14.967a69.185 69.185 0 0 0-1.104 12.884l-7.73-.063z" fill="#231F20" mask="url(#b)"></path></g><path fill="#231F20" d="m48.585 69.595 5.46-28.588h8.405l-5.46 28.588M56.008 28.922h8.405l-1.41 7.3h-8.467M96.99 69.595l5.46-28.588h8.403l-5.46 28.588M104.413 28.922h8.403l-1.412 7.3h-8.464M138.706 69.595l5.46-28.588h8.404l-5.46 28.588M146.129 28.922h8.404l-1.411 7.3h-8.404"></path><g transform="translate(264.155 .759)"><mask id="d" fill="#fff"><use xlink:href="#c"></use></mask><path d="M58.86 35.702h-5.875l.965-4.659h5.875l-.965 4.659zm-5.246 24.97h-5.833l4.448-21.068h5.834l-4.449 21.067zm-14.357 0 2.686-12.59c.168-.798.293-1.554.293-2.267 0-1.595-.797-2.727-2.685-2.727-3.232 0-4.743 2.811-5.372 5.707L31.661 60.67h-5.833l6.42-30.257h5.792l-2.728 12.548c1.93-2.35 4.239-3.777 7.26-3.777 3.274 0 5.75 1.636 5.75 5.035 0 1.092-.084 1.595-.42 3.106L45.09 60.671h-5.833zM18.312 57.23c1.72 0 3.441-.294 4.994-1.007l-.672 4.07c-2.098.63-4.238.84-6.42.84-4.826 0-8.897-2.77-8.897-7.974 0-8.183 5.623-13.974 13.807-13.974 1.888 0 4.028.293 5.791.881l-1.091 4.029c-1.3-.714-2.896-1.007-4.365-1.007-4.784 0-8.015 4.574-8.015 9.022 0 2.854 1.888 5.12 4.868 5.12zm67.582-36.234C84.131 19.232 70.331 3.823 69.002 2.493 67.672 1.163 65.282 0 60.872 0L6.432.126A6.431 6.431 0 0 0 0 6.558v56.521a6.431 6.431 0 0 0 6.432 6.432h48.155l5.03-23.78c.42-2.014.84-4.07 1.133-6.127h5.498l-.672 3.861c1.637-2.518 4.449-4.28 7.596-4.28 5.497 0 6.672 4.196 6.672 7.721 0 6.84-4.238 14.227-11.54 14.227-2.896 0-4.574-1.385-5.372-3.61L60.38 69.511h21.226a6.431 6.431 0 0 0 6.431-6.432V28.223c0-2.263-.378-5.463-2.142-7.227z" fill="#231F20" mask="url(#d)"></path></g><path d="M331.41 57.988c4.532 0 6.42-6.21 6.462-9.945.042-2.308-.671-4.197-3.357-4.197-3.693 0-5.665 5.12-6.127 8.183-.42 2.602-.042 5.96 3.022 5.96" fill="#231F20"></path><g transform="translate(359.484 18.908)"><mask id="f" fill="#fff"><use xlink:href="#e"></use></mask><path d="M36.516 36.283c0 4.497-.985 7.922-2.955 10.273-1.97 2.353-4.81 3.76-8.52 4.225h-13.49c-2.274-.257-4.328-.968-6.163-2.131C3.553 47.486 2.351 46 1.783 44.192a29.808 29.808 0 0 1-.697-2.016 27.952 27.952 0 0 1-.582-1.783 20.193 20.193 0 0 1-.426-1.706l7.598-1.783c.206.62.348 1.099.426 1.434.078.336.142.608.194.814.05.207.103.337.155.388.775 2.533 2.636 3.799 5.582 3.799h8.528c1.291 0 2.338-.206 3.14-.62.8-.414 1.435-.943 1.9-1.59.465-.646.775-1.395.93-2.248a14.52 14.52 0 0 0 .232-2.598c0-.93-.077-1.808-.232-2.635a5.46 5.46 0 0 0-.93-2.21c-.465-.646-1.1-1.163-1.9-1.55-.802-.388-1.849-.582-3.14-.582H9.148v-7.753h13.413c1.291 0 2.338-.206 3.14-.62.8-.413 1.435-.943 1.9-1.59.465-.645.775-1.395.93-2.248a14.97 14.97 0 0 0 .232-2.675c0-1.085-.104-1.9-.31-2.442-.207-.543-.517-1.15-.93-1.822-.982-1.705-2.636-2.558-4.962-2.558h-8.528c-3.05 0-5.014 1.55-5.892 4.652l-.543 2.015L0 12.559l.465-2.17c.672-2.997 1.95-5.375 3.838-7.133C6.189 1.5 8.606.414 11.552 0h13.49c.775.104 1.563.246 2.365.426.8.182 1.572.479 2.315.892.743.414 1.472.969 2.189 1.667.716.697 1.406 1.616 2.072 2.752.716 1.19 1.253 2.663 1.611 4.419.359 1.758.5 3.566.423 5.427a21.5 21.5 0 0 1-.922 5.427c-.537 1.758-1.394 3.231-2.57 4.42a16.77 16.77 0 0 1 1.535 1.782c.46.62.883 1.357 1.267 2.21.383.853.677 1.836.881 2.946.205 1.112.308 2.417.308 3.915" fill="#231F20" mask="url(#f)"></path></g></g></svg>