<svg xmlns:i="&#38;ns_ai;" xmlns="http://www.w3.org/2000/svg" viewBox="0 0 48 48"><path d="M39.9 44.3h-28c-.3 0-.5-.2-.5-.5v-32c0-.3.2-.5.5-.5s.5.2.5.5v31.5h27V11.8c0-.3.2-.5.5-.5s.5.2.5.5v32c0 .3-.2.5-.5.5z"></path><path d="M39.9 12.3H10.6c-1.8 0-3.2-2-3.2-4.5s1.5-4.5 3.2-4.5h29.3c.2 0 .4.1.5.3.1.2 0 .4-.1.5 0 0-1.9 1.9-1.9 3.6 0 1.7 1.8 3.6 1.9 3.6.1.1.2.4.1.5-.1.4-.3.5-.5.5zm-29.3-8c-1.2 0-2.2 1.6-2.2 3.5s1 3.5 2.2 3.5h28.2c-.6-.8-1.4-2.1-1.4-3.5s.8-2.7 1.4-3.5H10.6z"></path><path d="M11.9 44.3c-1.6 0-4.5-.9-4.5-4.5V7.4c0-.3.2-.5.5-.5s.5.2.5.5v32.4c0 3.4 3.4 3.5 3.5 3.5.3 0 .5.2.5.5s-.2.5-.5.5zm26-37.5H23.6c-.3 0-.5-.2-.5-.5s.2-.5.5-.5h14.3c.3 0 .5.2.5.5s-.2.5-.5.5zm0 3.5h-8c-.3 0-.5-.2-.5-.5s.2-.5.5-.5h8c.3 0 .5.2.5.5s-.2.5-.5.5z"></path></svg>