<svg xmlns="http://www.w3.org/2000/svg" xmlns:xlink="http://www.w3.org/1999/xlink" width="43px" height="42px" viewBox="0 0 43 42"><title>Group 17</title><desc>Created with Sketch.</desc><g id="Symbols" stroke="none" stroke-width="1" fill="none" fill-rule="evenodd"><g id="beneficios-desk-copy-9" transform="translate(-468.000000, -28.000000)" fill="#1BB99A"><g id="Group-17" transform="translate(468.000000, 28.000000)"><g id="Group-23" transform="translate(0.113597, 0.000000)"><path d="M22.4792854,25.9162302 L19.1582746,25.9162302 C18.2433362,25.9162302 17.4977693,25.1590589 17.4977693,24.2298798 C17.4977693,23.2990144 16.7538629,22.5435294 15.8372639,22.5435294 C14.9206649,22.5435294 14.1767585,23.2990144 14.1767585,24.2298798 C14.1767585,27.0191034 16.4117987,29.288931 19.1582746,29.288931 L19.1582746,30.9752814 C19.1582746,31.9061468 19.902181,32.6616318 20.81878,32.6616318 C21.735379,32.6616318 22.4792854,31.9061468 22.4792854,30.9752814 L22.4792854,29.288931 C25.2257613,29.288931 27.4608015,27.0191034 27.4608015,24.2298798 C27.4608015,21.4406563 25.2257613,19.1708286 22.4792854,19.1708286 L19.1582746,19.1708286 C18.2433362,19.1708286 17.4977693,18.4136573 17.4977693,17.4844782 C17.4977693,16.5552992 18.2433362,15.7981278 19.1582746,15.7981278 L22.4792854,15.7981278 C23.3942238,15.7981278 24.1397908,16.5552992 24.1397908,17.4844782 C24.1397908,18.4153436 24.8836972,19.1708286 25.8002961,19.1708286 C26.7168951,19.1708286 27.4608015,18.4153436 27.4608015,17.4844782 C27.4608015,14.6952547 25.2257613,12.425427 22.4792854,12.425427 L22.4792854,10.7390766 C22.4792854,9.80821121 21.735379,9.05272623 20.81878,9.05272623 C19.902181,9.05272623 19.1582746,9.80821121 19.1582746,10.7390766 L19.1582746,12.425427 C16.4117987,12.425427 14.1767585,14.6952547 14.1767585,17.4844782 C14.1767585,20.2737018 16.4117987,22.5435294 19.1582746,22.5435294 L22.4792854,22.5435294 C23.3942238,22.5435294 24.1397908,23.3007008 24.1397908,24.2298798 C24.1397908,25.1590589 23.3942238,25.9162302 22.4792854,25.9162302" id="Fill-4"></path><path d="M21.0514635,41.7214295 C32.6299906,41.7214295 42.0162414,32.3993582 42.0162414,20.9000005 C42.0162414,9.40064273 32.6299906,0.0785714303 21.0514635,0.0785714303 C9.47293632,0.0785714303 0.0866855195,9.40064273 0.0866855195,20.9000005 C0.0866855195,32.3993582 9.47293632,41.7214295 21.0514635,41.7214295 Z M21.0514635,37.792858 C11.6575641,37.792858 4.042304,30.229668 4.042304,20.9000005 C4.042304,11.5703329 11.6575641,4.00714294 21.0514635,4.00714294 C30.4453628,4.00714294 38.0606229,11.5703329 38.0606229,20.9000005 C38.0606229,30.229668 30.4453628,37.792858 21.0514635,37.792858 Z" id="Oval" fill-rule="nonzero"></path><rect id="Rectangle" transform="translate(20.975196, 20.701807) rotate(41.000000) translate(-20.975196, -20.701807) " x="19.3251957" y="3.10180671" width="3.30000007" height="35.2000008"></rect></g></g></g></g></svg>