<svg xmlns="http://www.w3.org/2000/svg" xmlns:xlink="http://www.w3.org/1999/xlink" width="96px" height="49px" viewBox="0 0 96 49"><title>icon_0%_op2</title><g id="icon_0%_op2" stroke="none" stroke-width="1" fill="none" fill-rule="evenodd"><g id="Group-34" transform="translate(2.000000, 4.000000)" fill-rule="nonzero"><path d="M34.736559,34.1712515 C38.1579991,34.1712515 39.2725591,32.8493315 39.2725591,29.4019713 C39.2725591,26.0064512 38.0283991,24.8918911 34.723599,24.8918911 L30.7707988,24.8918911 L30.7707988,34.1712515 L34.736559,34.1712515 Z M34.619919,32.3050114 L33.5053589,32.3050114 L33.5053589,26.7710912 L34.593999,26.7710912 C36.019599,26.7710912 36.460239,27.2765312 36.460239,29.4278913 C36.460239,31.8773314 36.006639,32.3050114 34.619919,32.3050114 Z M48.5778395,34.1712515 L48.5778395,32.1624514 L43.4456793,32.1624514 L43.4456793,30.4128514 L47.7613595,30.4128514 L47.7613595,28.4558913 L43.4456793,28.4558913 L43.4456793,26.8358912 L48.3963995,26.8358912 L48.3963995,24.8918911 L40.8147992,24.8918911 L40.8147992,34.1712515 L48.5778395,34.1712515 Z M59.5160799,34.1712515 L59.5160799,26.9914112 L62.4709601,26.9914112 L62.4709601,24.8918911 L53.8525597,24.8918911 L53.8525597,26.9914112 L56.8074398,26.9914112 L56.8074398,34.1712515 L59.5160799,34.1712515 Z M64.8556002,34.1712515 L65.4258402,32.4734914 L68.6399203,32.4734914 L69.1972003,34.1712515 L72.0484004,34.1712515 L68.3936803,24.8918911 L65.7368802,24.8918911 L62.05624,34.1712515 L64.8556002,34.1712515 Z M67.9530403,30.4128514 L66.1256802,30.4128514 L67.0588002,27.6653313 L67.9530403,30.4128514 Z M75.1069606,34.1712515 L77.0380006,31.2941314 L79.1375207,34.1712515 L82.1701608,34.1712515 L78.6839207,29.4538113 L81.8850408,24.8918911 L79.0079207,24.8918911 L77.2972006,27.5746113 L75.3272806,24.8918911 L72.3724005,24.8918911 L75.5994406,29.3242113 L72.1002404,34.1712515 L75.1069606,34.1712515 Z M85.021361,34.1712515 L85.591601,32.4734914 L88.8056811,32.4734914 L89.3629611,34.1712515 L92.2141612,34.1712515 L88.5594411,24.8918911 L85.902641,24.8918911 L82.2220008,34.1712515 L85.021361,34.1712515 Z M88.1188011,30.4128514 L86.291441,30.4128514 L87.224561,27.6653313 L88.1188011,30.4128514 Z" id="DETAXA" fill="#22BB9D"></path><path d="M33.390806,20.1098158 L41.2640063,5.45205526 L38.7368062,5.45205526 L30.8636059,20.1098158 L33.390806,20.1098158 Z M30.9413659,12.8392555 C33.371366,12.8392555 34.6155261,11.8866955 34.6155261,9.20397541 C34.6155261,6.4434953 33.468566,5.45205526 30.9608059,5.45205526 C28.4141658,5.45205526 27.3060858,6.4434953 27.3060858,9.20397541 C27.3060858,11.8866955 28.4530458,12.8392555 30.9413659,12.8392555 Z M30.9413659,11.0896555 C30.0276859,11.0896555 30.0860059,10.4286955 30.0860059,9.20397541 C30.0860059,7.80429535 30.0276859,7.14333532 30.9608059,7.14333532 C31.699526,7.14333532 31.893926,7.82373535 31.893926,9.1845354 L31.8940866,9.50495219 C31.89248,10.5273414 31.8426751,11.0896555 30.9413659,11.0896555 Z M41.0112863,20.3042158 C43.4412864,20.3042158 44.6854465,19.3516558 44.6854465,16.6689357 C44.6854465,13.9084556 43.5384864,12.9364556 41.0307263,12.9364556 C38.4840862,12.9364556 37.3760062,13.9084556 37.3760062,16.6689357 C37.3760062,19.3516558 38.5229662,20.3042158 41.0112863,20.3042158 Z M41.0112863,18.5546158 C40.0976063,18.5546158 40.1559263,17.9130958 40.1559263,16.6689357 C40.1559263,15.2692556 40.0976063,14.6277356 41.0307263,14.6277356 C41.7694464,14.6277356 41.9638464,15.2692556 41.9638464,16.6689357 L41.964007,16.9888997 C41.9624004,18.0083678 41.9125955,18.5546158 41.0112863,18.5546158 Z" id="%" fill="#22BB9D"></path><path d="M1.06079855e-14,18.0958577 L0.00508576091,18.9392711 C0.146275872,30.4771923 3.2472935,36.6428586 11.8091531,36.6428586 C20.932104,36.6428586 23.6689892,30.1764718 23.6689892,18.0958577 C23.6689892,5.86486246 20.121175,1.30095939e-13 11.8598361,1.30095939e-13 C3.19303281,1.30095939e-13 1.06079855e-14,5.86486246 1.06079855e-14,18.0958577 Z M7.19953029,17.2126892 C7.25022474,9.16846406 8.08519445,5.46384622 11.8598361,5.46384622 C15.914481,5.46384622 16.4719947,9.42388155 16.4719947,18.0457306 L16.4689288,18.9168423 C16.4040973,27.8827301 15.2969274,31.1790124 11.8091531,31.1790124 C8.26601729,31.1790124 7.22879596,27.7286592 7.19772007,18.4833574 L7.19953029,17.2126892 Z" id="0" stroke="#22BB9D" stroke-width="3.24000013"></path></g></g></svg>