<svg xmlns="http://www.w3.org/2000/svg" viewBox="0 0 10 19"><path d="M10.06 3.12H7.33v2.74h1.11v1.76a1 1 0 01-.33.72l-2.83 2.57v-8h1.36L5 0 3.33 2.86h1.45V13l-2.9-2.64a.92.92 0 01-.3-.68V7.79A1.32 1.32 0 100 6.51a1.32 1.32 0 001.08 1.28v1.85a1.42 1.42 0 00.46 1l3.24 3v.48a2.11 2.11 0 10.5 0v-2.54l3.17-2.86a1.45 1.45 0 00.5-1.1V5.86h1.12zM5 1l.79 1.36H4.2zM.5 6.51a.83.83 0 11.83.83.83.83 0 01-.83-.83zm6.14 9.69A1.61 1.61 0 115 14.59a1.61 1.61 0 011.64 1.61s0-.01 0 0zM9.56 5.36H7.83V3.62h1.73z"></path></svg>